<?xml version="1.0" encoding="UTF-8"?><svg id="Layer_2" xmlns="http://www.w3.org/2000/svg" xmlns:xlink="http://www.w3.org/1999/xlink" viewBox="0 0 376.49 540.1"><defs><style>.cls-1{fill:none;}.cls-2{fill:url(#linear-gradient);}.cls-3{clip-path:url(#clippath);}.cls-4{fill:url(#Orange_Yellow);}.cls-5{clip-path:url(#clippath-1);}.cls-6{clip-path:url(#clippath-2);}.cls-7{fill:url(#linear-gradient-3);}.cls-8{fill:url(#linear-gradient-4);}.cls-9{fill:url(#linear-gradient-2);}</style><linearGradient id="linear-gradient" x1="0" y1="411.62" x2="247.71" y2="411.62" gradientUnits="userSpaceOnUse"><stop offset="0" stop-color="#db3832"/><stop offset="1" stop-color="#d2639e"/></linearGradient><clipPath id="clippath"><path class="cls-2" d="m185.25,320.1c3.65-3.45,7.32-4.17,11.33-3.55,3.72.58,7.05,2.21,10.15,4.31,5.88,3.98,10.81,8.95,15.19,14.5,11.59,14.68,18.84,31.4,22.87,49.54,3.95,17.79,3.83,35.66.02,53.47-4.39,20.54-12.61,39.35-25.73,55.87-17.21,21.66-38.98,36.3-66.08,42.64-7.61,1.78-15.3,2.95-23.14,3.12-9.77.21-19.54.2-29.21-1.39-16.64-2.73-32.66-7.48-47.51-15.69-.17-.09-.33-.22-.5-.3-5.14-2.18-6.83-6-5.29-11.59,1.34-.29,2.83-.56,4.29-.94,8.33-2.17,13.19-7.99,14.04-16.6.85-8.55,1.83-17.08,2.67-25.63.74-7.58,1.34-15.17,2.04-22.75.23-2.53.44-5.07.91-7.55.5-2.67,3.09-4.33,5.69-3.62,3.11.85,5.78,2.37,6.64,5.89.55,2.27,1.11,4.55,1.78,6.79,4.11,13.75,11.61,25.06,23.7,33.09.65.43,1.33.83,2.03,1.16.33.15.75.09,1.34.15.17-.7.51-1.43.51-2.17.03-18.74.02-37.49.02-55.9-1.55-2.29-3.82-2.61-5.74-3.42-9.05-3.86-17.43-8.76-24.67-15.47-10.23-9.47-16.02-21.26-16.54-35.1-.5-13.37,2.34-26.04,11.53-36.53,8.86-10.12,19.93-16.07,33.32-17.62.37-.04.73-.24,1.32-.45.47-.83,1.03-1.83,1.72-3.04h21.19c.36,1.75.7,3.38,1.1,5.31,7.53,2.38,14.37,6.38,21.38,10.52.31-.98.61-1.49.61-2-.03-5.08-.14-10.16-.16-15.23-.02-3.82-2.07-6.19-5.39-7.6-1.43-.6-2.96-1.09-4.49-1.3-27.51-3.89-53.83-.64-77.76,14.3-31.13,19.43-49.63,47.56-54.8,83.9-2.27,15.99-.41,31.95,4.72,47.41,3.03,9.14,7.14,17.72,12.54,25.69,4.2,6.2,9.33,11.53,15.09,16.26,3.92,3.23,8.17,5.93,13.45,6.75.21,4.14-1.47,7.03-4.55,9.11-3.53,2.37-7.34,3.6-11.61,2.02-2.97-1.1-5.74-2.61-7.94-4.85-3.55-3.61-7.2-7.2-10.28-11.19-15.16-19.63-24.03-41.9-26.59-66.54-.74-7.15-.49-14.45-.08-21.65.5-8.78,2.04-17.48,4.57-25.9,12.96-43.21,40.62-72.61,83.18-87.66,10.52-3.72,21.56-5.15,32.76-5.44,22.45-.59,43.77,4.07,64.08,13.49,4.06,1.88,7.9,4.24,11.82,6.4,2.59,1.42,4.16,3.43,3.86,6.59-.13,1.33-.02,2.69-.02,3.77-1.01,1.32-1.95.63-2.83.46-3.36-.62-6.61-.18-9.77,1.01-2.9,1.09-4.91,3.03-5.67,6.04,4.02,1.75,8.04,3.15,11.7,5.18,9.01,5,16.46,11.9,22.56,20.14,9.56,12.9,15.85,27.33,18.74,43.12,1.19,6.51,2.06,13.15,2.24,19.75.6,21.37-4.8,41.37-14.89,60.11-9.53,17.71-22.59,32.21-39.71,42.95-13.08,8.2-27.29,13.44-42.49,15.7-9.66,1.44-19.41,1.67-29.2.7-8.96-.88-17.74-2.42-26.38-4.98-8.64-2.56-16.99-5.68-24.4-10.88-1.37,1.2-.98,2.05.24,2.78,5.37,3.21,10.98,5.92,16.87,8.05,17.3,6.27,35.12,8.66,53.48,7.41,36.97-2.51,65.51-19.71,86.63-49.74,11.45-16.26,18.52-34.41,20.96-54.08,3.56-28.74-2.06-55.57-18.64-79.7-5.13-7.47-11.37-13.9-18.73-19.2-3.97-2.85-8.04-5.52-12.91-6.67-.92-.22-1.75-.81-3.22-1.51Zm-49.49,14.42c0,19.57,0,38.31.02,57.05,0,.75.25,1.5.41,2.39,1.87.73,3.7,1.36,5.46,2.15,5.86,2.64,11.8,5.14,17.51,8.07,5.95,3.05,11.13,7.23,15.44,12.38,17.83,21.33,16.77,49.77,3.14,69.73-7.6,11.13-18.13,18.1-31.8,19.75-3.27.4-6.53.87-9.77,1.3-.5,2.14-1.64,3.07-3.76,3.03-5.07-.09-10.15,0-15.23-.03-1.12,0-2.24-.19-3.58-.31-.37-2.33-.69-4.39-.99-6.28-17.57-8.52-17.05-6.69-34.67-22.81-1.29,1.08-1.58,2.54-1.6,4.1-.13,7.23-.23,14.45-.38,21.68-.07,3.66,1.65,6.33,4.5,8.39,2.56,1.86,5.41,3.05,8.45,3.89,6.97,1.92,14.04,3.15,21.25,3.86,12.33,1.22,24.58.98,36.69-1.6,16.49-3.51,31.33-10.55,44.39-21.3,13.99-11.51,24.54-25.61,31.65-42.24,13.05-30.54,12.9-61.11-.59-91.45-5.04-11.33-11.85-21.53-21.59-29.53-6.24-5.12-13.08-9.18-20.41-12.47-1.6-.72-3.22-1.4-4.77-2.21-1.92-1.01-2.66-2.99-1.66-4.91.61-1.17,1.51-2.35,2.58-3.08,1.59-1.08,3.4-1.88,5.2-2.6,1.75-.7,3.6-1.14,5.44-1.7-.76-2.34-2.76-2.97-4.43-3.82-19.11-9.75-39.23-14.94-60.86-13.87-9.61.47-19.02,1.7-28.19,4.61-32.74,10.37-56.9,31.02-72.6,61.44-10.52,20.39-15.22,42.07-12.99,65.1,1.57,16.18,6.22,31.35,14.49,45.34,5.09,8.62,11.07,16.58,18.82,23.02,2.83,2.36,5.93,4.44,9.06,6.39,2.33,1.45,2.44,1.26,5.73.02-4.31-.68-7.46-2.95-10.56-5.32-4.68-3.57-8.85-7.68-12.52-12.27-15.89-19.83-23.06-42.75-23.39-67.88-.16-11.97,1.91-23.73,5.69-35.11,9.2-27.67,25.73-49.78,50.45-65.42,16.26-10.29,34.03-16.19,53.38-17.27,11.58-.65,23,.05,34.28,2.64,9.53,2.19,18.47,6.08,27.39,10.01.3.13.45.61.77,1.06-1.79.68-3.63,1.2-5.29,2.06-3.95,2.05-6.26,5.12-5.87,9.87.96,11.67,1.85,23.35,2.71,35.03.21,2.92.39,5.86.24,8.78-.19,3.63-2.88,6.1-6.92,6.78-2.68.46-4.6-.78-6.15-4.27-.86-1.95-1.41-4.05-2.13-6.06-3.09-8.64-7.99-16.04-15.1-21.9-1.93-1.59-3.97-3.02-7.3-4.16Zm.43,97.84c-.24,1.33-.43,1.9-.43,2.47-.02,16.21-.02,32.42.01,48.62,0,.89.37,1.77.6,2.8,6.19.02,11.37-1.97,15.95-5.54,3.02-2.35,5.07-5.46,5.82-9.23,1.01-5.06.87-10.09-1-14.99-1.82-4.78-4.19-9.26-7.37-13.25-3.54-4.45-7.81-8.06-13.58-10.89Zm-23.8-52.04c.27-1.09.6-1.79.6-2.48.05-14.26.07-28.52.05-42.78,0-.89-.43-1.79-.65-2.68-.89.07-1.51,0-2.04.19-8.62,3.07-16.25,11.32-12.84,24.27,1.81,6.87,4.96,13.14,9.51,18.64,1.45,1.76,2.93,3.57,5.38,4.85Z"/></clipPath><linearGradient id="linear-gradient-2" x1="44.49" y1="143.2" x2="44.49" y2="405" gradientTransform="translate(87.04 137.52)" xlink:href="#linear-gradient"/><clipPath id="clippath-1"><path class="cls-1" d="m314.03,169.32c3.65-3.45,7.32-4.17,11.33-3.55,3.72.58,7.05,2.21,10.15,4.31,5.88,3.98,10.81,8.95,15.19,14.5,11.59,14.68,18.84,31.4,22.87,49.54,3.95,17.79,3.83,35.66.02,53.47-4.39,20.54-12.61,39.35-25.73,55.87-17.21,21.66-38.98,36.3-66.08,42.64-7.61,1.78-15.3,2.95-23.14,3.12-9.77.21-19.54.2-29.21-1.39-16.64-2.73-32.66-7.48-47.51-15.69-.17-.09-.33-.22-.5-.3-5.14-2.18-6.83-6-5.29-11.59,1.34-.29,2.83-.56,4.29-.94,8.33-2.17,13.19-7.99,14.04-16.6.85-8.55,1.83-17.08,2.67-25.63.74-7.58,1.34-15.17,2.04-22.75.23-2.53.44-5.07.91-7.55.5-2.67,3.09-4.33,5.69-3.62,3.11.85,5.78,2.37,6.64,5.89.55,2.27,1.11,4.55,1.78,6.79,4.11,13.75,11.61,25.06,23.7,33.09.65.43,1.33.83,2.03,1.16.33.15.75.09,1.34.15.17-.7.51-1.43.51-2.17.03-18.74.02-37.49.02-55.9-1.55-2.29-3.82-2.61-5.74-3.42-9.05-3.86-17.43-8.76-24.67-15.47-10.23-9.47-16.02-21.26-16.54-35.1-.5-13.37,2.34-26.04,11.53-36.53,8.86-10.12,19.93-16.07,33.32-17.62.37-.04.73-.24,1.32-.45.47-.83,1.03-1.83,1.72-3.04h21.19c.36,1.75.7,3.38,1.1,5.31,7.53,2.38,14.37,6.38,21.38,10.52.31-.98.61-1.49.61-2-.03-5.08-.14-10.16-.16-15.23-.02-3.82-2.07-6.19-5.39-7.6-1.43-.6-2.96-1.09-4.49-1.3-27.51-3.89-53.83-.64-77.76,14.3-31.13,19.43-49.63,47.56-54.8,83.9-2.27,15.99-.41,31.95,4.72,47.41,3.03,9.14,7.14,17.72,12.54,25.69,4.2,6.2,9.33,11.53,15.09,16.26,3.92,3.23,8.17,5.93,13.45,6.75.21,4.14-1.47,7.03-4.55,9.11-3.53,2.37-7.34,3.6-11.61,2.02-2.97-1.1-5.74-2.61-7.94-4.85-3.55-3.61-7.2-7.2-10.28-11.19-15.16-19.63-24.03-41.9-26.59-66.54-.74-7.15-.49-14.45-.08-21.65.5-8.78,2.04-17.48,4.57-25.9,12.96-43.21,40.62-72.61,83.18-87.66,10.52-3.72,21.56-5.15,32.76-5.44,22.45-.59,43.77,4.07,64.08,13.49,4.06,1.88,7.9,4.24,11.82,6.4,2.59,1.42,4.16,3.43,3.86,6.59-.13,1.33-.02,2.69-.02,3.77-1.01,1.32-1.95.63-2.83.46-3.36-.62-6.61-.18-9.77,1.01-2.9,1.09-4.91,3.03-5.67,6.04,4.02,1.75,8.04,3.15,11.7,5.18,9.01,5,16.46,11.9,22.56,20.14,9.56,12.9,15.85,27.33,18.74,43.12,1.19,6.51,2.06,13.15,2.24,19.75.6,21.37-4.8,41.37-14.89,60.11-9.53,17.71-22.59,32.21-39.71,42.95-13.08,8.2-27.29,13.44-42.49,15.7-9.66,1.44-19.41,1.67-29.2.7-8.96-.88-17.74-2.42-26.38-4.98-8.64-2.56-16.99-5.68-24.4-10.88-1.37,1.2-.98,2.05.24,2.78,5.37,3.21,10.98,5.92,16.87,8.05,17.3,6.27,35.12,8.66,53.48,7.41,36.97-2.51,65.51-19.71,86.63-49.74,11.45-16.26,18.52-34.41,20.96-54.08,3.56-28.74-2.06-55.57-18.64-79.7-5.13-7.47-11.37-13.9-18.73-19.2-3.97-2.85-8.04-5.52-12.91-6.67-.92-.22-1.75-.81-3.22-1.51Zm-49.49,14.42c0,19.57,0,38.31.02,57.05,0,.75.25,1.5.41,2.39,1.87.73,3.7,1.36,5.46,2.15,5.86,2.64,11.8,5.14,17.51,8.07,5.95,3.05,11.13,7.23,15.44,12.38,17.83,21.33,16.77,49.77,3.14,69.73-7.6,11.13-18.13,18.1-31.8,19.75-3.27.4-6.53.87-9.77,1.3-.5,2.14-1.64,3.07-3.76,3.03-5.07-.09-10.15,0-15.23-.03-1.12,0-2.24-.19-3.58-.31-.37-2.33-.69-4.39-.99-6.28-17.57-8.52-17.05-6.69-34.67-22.81-1.29,1.08-1.58,2.54-1.6,4.1-.13,7.23-.23,14.45-.38,21.68-.07,3.66,1.65,6.33,4.5,8.39,2.56,1.86,5.41,3.05,8.45,3.89,6.97,1.92,14.04,3.15,21.25,3.86,12.33,1.22,24.58.98,36.69-1.6,16.49-3.51,31.33-10.55,44.39-21.3,13.99-11.51,24.54-25.61,31.65-42.24,13.05-30.54,12.9-61.11-.59-91.45-5.04-11.33-11.85-21.53-21.59-29.53-6.24-5.12-13.08-9.18-20.41-12.47-1.6-.72-3.22-1.4-4.77-2.21-1.92-1.01-2.66-2.99-1.66-4.91.61-1.17,1.51-2.35,2.58-3.08,1.59-1.08,3.4-1.88,5.2-2.6,1.75-.7,3.6-1.14,5.44-1.7-.76-2.34-2.76-2.97-4.43-3.82-19.11-9.75-39.23-14.94-60.86-13.87-9.61.47-19.02,1.7-28.19,4.61-32.74,10.37-56.9,31.02-72.6,61.44-10.52,20.39-15.22,42.07-12.99,65.1,1.57,16.18,6.22,31.35,14.49,45.34,5.09,8.62,11.07,16.58,18.82,23.02,2.83,2.36,5.93,4.44,9.06,6.39,2.33,1.45,2.44,1.26,5.73.02-4.31-.68-7.46-2.95-10.56-5.32-4.68-3.57-8.85-7.68-12.52-12.27-15.89-19.83-23.06-42.75-23.39-67.88-.16-11.97,1.91-23.73,5.69-35.11,9.2-27.67,25.73-49.78,50.45-65.42,16.26-10.29,34.03-16.19,53.38-17.27,11.58-.65,23,.05,34.28,2.64,9.53,2.19,18.47,6.08,27.39,10.01.3.13.45.61.77,1.06-1.79.68-3.63,1.2-5.29,2.06-3.95,2.05-6.26,5.12-5.87,9.87.96,11.67,1.85,23.35,2.71,35.03.21,2.92.39,5.86.24,8.78-.19,3.63-2.88,6.1-6.92,6.78-2.68.46-4.6-.78-6.15-4.27-.86-1.95-1.41-4.05-2.13-6.06-3.09-8.64-7.99-16.04-15.1-21.9-1.93-1.59-3.97-3.02-7.3-4.16Zm.43,97.84c-.24,1.33-.43,1.9-.43,2.47-.02,16.21-.02,32.42.01,48.62,0,.89.37,1.77.6,2.8,6.19.02,11.37-1.97,15.95-5.54,3.02-2.35,5.07-5.46,5.82-9.23,1.01-5.06.87-10.09-1-14.99-1.82-4.78-4.19-9.26-7.37-13.25-3.54-4.45-7.81-8.06-13.58-10.89Zm-23.8-52.04c.27-1.09.6-1.79.6-2.48.05-14.26.07-28.52.05-42.78,0-.89-.43-1.79-.65-2.68-.89.07-1.51,0-2.04.19-8.62,3.07-16.25,11.32-12.84,24.27,1.81,6.87,4.96,13.14,9.51,18.64,1.45,1.76,2.93,3.57,5.38,4.85Z"/></clipPath><linearGradient id="linear-gradient-3" x1="-84.86" y1="293.99" x2="-84.86" y2="555.79" gradientTransform="translate(345.72 -164.05)" gradientUnits="userSpaceOnUse"><stop offset="0" stop-color="#5e3289"/><stop offset=".42" stop-color="#6671af"/><stop offset="1" stop-color="#72c6e3"/></linearGradient><linearGradient id="Orange_Yellow" x1="158.76" y1="0" x2="158.76" y2="256.95" gradientUnits="userSpaceOnUse"><stop offset="0" stop-color="#fff262"/><stop offset=".03" stop-color="#fde85c"/><stop offset=".11" stop-color="#f9d64f"/><stop offset=".19" stop-color="#f6ca48"/><stop offset=".28" stop-color="#f6c746"/><stop offset=".67" stop-color="#e69450"/><stop offset=".89" stop-color="#de7049"/><stop offset="1" stop-color="#d84c43"/></linearGradient><clipPath id="clippath-2"><path class="cls-4" d="m220.15,36.96c3.65-3.45,7.32-4.17,11.33-3.55,3.72.58,7.05,2.21,10.15,4.31,5.88,3.98,10.81,8.95,15.19,14.5,11.59,14.68,18.84,31.4,22.87,49.54,3.95,17.79,3.83,35.66.02,53.47-4.39,20.54-12.61,39.35-25.73,55.87-17.21,21.66-38.98,36.3-66.08,42.64-7.61,1.78-15.3,2.95-23.14,3.12-9.77.21-19.54.2-29.21-1.39-16.64-2.73-32.66-7.48-47.51-15.69-.17-.09-.33-.22-.5-.3-5.14-2.18-6.83-6-5.29-11.59,1.34-.29,2.83-.56,4.29-.94,8.33-2.17,13.19-7.99,14.04-16.6.85-8.55,1.83-17.08,2.67-25.63.74-7.58,1.34-15.17,2.04-22.75.23-2.53.44-5.07.91-7.55.5-2.67,3.09-4.33,5.69-3.62,3.11.85,5.78,2.37,6.64,5.89.55,2.27,1.11,4.55,1.78,6.79,4.11,13.75,11.61,25.06,23.7,33.09.65.43,1.33.83,2.03,1.16.33.15.75.09,1.34.15.17-.7.51-1.43.51-2.17.03-18.74.02-37.49.02-55.9-1.55-2.29-3.82-2.61-5.74-3.42-9.05-3.86-17.43-8.76-24.67-15.47-10.23-9.47-16.02-21.26-16.54-35.1-.5-13.37,2.34-26.04,11.53-36.53,8.86-10.12,19.93-16.07,33.32-17.62.37-.04.73-.24,1.32-.45.47-.83,1.03-1.83,1.72-3.04h21.19c.36,1.75.7,3.38,1.1,5.31,7.53,2.38,14.37,6.38,21.38,10.52.31-.98.61-1.49.61-2-.03-5.08-.14-10.16-.16-15.23-.02-3.82-2.07-6.19-5.39-7.6-1.43-.6-2.96-1.09-4.49-1.3-27.51-3.89-53.83-.64-77.76,14.3-31.13,19.43-49.63,47.56-54.8,83.9-2.27,15.99-.41,31.95,4.72,47.41,3.03,9.14,7.14,17.72,12.54,25.69,4.2,6.2,9.33,11.53,15.09,16.26,3.92,3.23,8.17,5.93,13.45,6.75.21,4.14-1.47,7.03-4.55,9.11-3.53,2.37-7.34,3.6-11.61,2.02-2.97-1.1-5.74-2.61-7.94-4.85-3.55-3.61-7.2-7.2-10.28-11.19-15.16-19.63-24.03-41.9-26.59-66.54-.74-7.15-.49-14.45-.08-21.65.5-8.78,2.04-17.48,4.57-25.9C52.83,49.94,80.49,20.54,123.05,5.49,133.58,1.77,144.61.34,155.81.05c22.45-.59,43.77,4.07,64.08,13.49,4.06,1.88,7.9,4.24,11.82,6.4,2.59,1.42,4.16,3.43,3.86,6.59-.13,1.33-.02,2.69-.02,3.77-1.01,1.32-1.95.63-2.83.46-3.36-.62-6.61-.18-9.77,1.01-2.9,1.09-4.91,3.03-5.67,6.04,4.02,1.75,8.04,3.15,11.7,5.18,9.01,5,16.46,11.9,22.56,20.14,9.56,12.9,15.85,27.33,18.74,43.12,1.19,6.51,2.06,13.15,2.24,19.75.6,21.37-4.8,41.37-14.89,60.11-9.53,17.71-22.59,32.21-39.71,42.95-13.08,8.2-27.29,13.44-42.49,15.7-9.66,1.44-19.41,1.67-29.2.7-8.96-.88-17.74-2.42-26.38-4.98-8.64-2.56-16.99-5.68-24.4-10.88-1.37,1.2-.98,2.05.24,2.78,5.37,3.21,10.98,5.92,16.87,8.05,17.3,6.27,35.12,8.66,53.48,7.41,36.97-2.51,65.51-19.71,86.63-49.74,11.45-16.26,18.52-34.41,20.96-54.08,3.56-28.74-2.06-55.57-18.64-79.7-5.13-7.47-11.37-13.9-18.73-19.2-3.97-2.85-8.04-5.52-12.91-6.67-.92-.22-1.75-.81-3.22-1.51Zm-49.49,14.42c0,19.57,0,38.31.02,57.05,0,.75.25,1.5.41,2.39,1.87.73,3.7,1.36,5.46,2.15,5.86,2.64,11.8,5.14,17.51,8.07,5.95,3.05,11.13,7.23,15.44,12.38,17.83,21.33,16.77,49.77,3.14,69.73-7.6,11.13-18.13,18.1-31.8,19.75-3.27.4-6.53.87-9.77,1.3-.5,2.14-1.64,3.07-3.76,3.03-5.07-.09-10.15,0-15.23-.03-1.12,0-2.24-.19-3.58-.31-.37-2.33-.69-4.39-.99-6.28-17.57-8.52-17.05-6.69-34.67-22.81-1.29,1.08-1.58,2.54-1.6,4.1-.13,7.23-.23,14.45-.38,21.68-.07,3.66,1.65,6.33,4.5,8.39,2.56,1.86,5.41,3.05,8.45,3.89,6.97,1.92,14.04,3.15,21.25,3.86,12.33,1.22,24.58.98,36.69-1.6,16.49-3.51,31.33-10.55,44.39-21.3,13.99-11.51,24.54-25.61,31.65-42.24,13.05-30.54,12.9-61.11-.59-91.45-5.04-11.33-11.85-21.53-21.59-29.53-6.24-5.12-13.08-9.18-20.41-12.47-1.6-.72-3.22-1.4-4.77-2.21-1.92-1.01-2.66-2.99-1.66-4.91.61-1.17,1.51-2.35,2.58-3.08,1.59-1.08,3.4-1.88,5.2-2.6,1.75-.7,3.6-1.14,5.44-1.7-.76-2.34-2.76-2.97-4.43-3.82-19.11-9.75-39.23-14.94-60.86-13.87-9.61.47-19.02,1.7-28.19,4.61-32.74,10.37-56.9,31.02-72.6,61.44-10.52,20.39-15.22,42.07-12.99,65.1,1.57,16.18,6.22,31.35,14.49,45.34,5.09,8.62,11.07,16.58,18.82,23.02,2.83,2.36,5.93,4.44,9.06,6.39,2.33,1.45,2.44,1.26,5.73.02-4.31-.68-7.46-2.95-10.56-5.32-4.68-3.57-8.85-7.68-12.52-12.27-15.89-19.83-23.06-42.75-23.39-67.88-.16-11.97,1.91-23.73,5.69-35.11,9.2-27.67,25.73-49.78,50.45-65.42,16.26-10.29,34.03-16.19,53.38-17.27,11.58-.65,23,.05,34.28,2.64,9.53,2.19,18.47,6.08,27.39,10.01.3.13.45.61.77,1.06-1.79.68-3.63,1.2-5.29,2.06-3.95,2.05-6.26,5.12-5.87,9.87.96,11.67,1.85,23.35,2.71,35.03.21,2.92.39,5.86.24,8.78-.19,3.63-2.88,6.1-6.92,6.78-2.68.46-4.6-.78-6.15-4.27-.86-1.95-1.41-4.05-2.13-6.06-3.09-8.64-7.99-16.04-15.1-21.9-1.93-1.59-3.97-3.02-7.3-4.16Zm.43,97.84c-.24,1.33-.43,1.9-.43,2.47-.02,16.21-.02,32.42.01,48.62,0,.89.37,1.77.6,2.8,6.19.02,11.37-1.97,15.95-5.54,3.02-2.35,5.07-5.46,5.82-9.23,1.01-5.06.87-10.09-1-14.99-1.82-4.78-4.19-9.26-7.37-13.25-3.54-4.45-7.81-8.06-13.58-10.89Zm-23.8-52.04c.27-1.09.6-1.79.6-2.48.05-14.26.07-28.52.05-42.78,0-.89-.43-1.79-.65-2.68-.89.07-1.51,0-2.04.19-8.62,3.07-16.25,11.32-12.84,24.27,1.81,6.87,4.96,13.14,9.51,18.64,1.45,1.76,2.93,3.57,5.38,4.85Z"/></clipPath><linearGradient id="linear-gradient-4" x1="66.94" y1="72.72" x2="66.94" y2="334.52" gradientTransform="translate(42.12 278.48)" gradientUnits="userSpaceOnUse"><stop offset="0" stop-color="#156b3f"/><stop offset="1" stop-color="#57af58"/></linearGradient></defs><g id="Layer_1-2"><path class="cls-2" d="m185.25,320.1c3.65-3.45,7.32-4.17,11.33-3.55,3.72.58,7.05,2.21,10.15,4.31,5.88,3.98,10.81,8.95,15.19,14.5,11.59,14.68,18.84,31.4,22.87,49.54,3.95,17.79,3.83,35.66.02,53.47-4.39,20.54-12.61,39.35-25.73,55.87-17.21,21.66-38.98,36.3-66.08,42.64-7.61,1.78-15.3,2.95-23.14,3.12-9.77.21-19.54.2-29.21-1.39-16.64-2.73-32.66-7.48-47.51-15.69-.17-.09-.33-.22-.5-.3-5.14-2.18-6.83-6-5.29-11.59,1.34-.29,2.83-.56,4.29-.94,8.33-2.17,13.19-7.99,14.04-16.6.85-8.55,1.83-17.08,2.67-25.63.74-7.58,1.34-15.17,2.04-22.75.23-2.53.44-5.07.91-7.55.5-2.67,3.09-4.33,5.69-3.62,3.11.85,5.78,2.37,6.64,5.89.55,2.27,1.11,4.55,1.78,6.79,4.11,13.75,11.61,25.06,23.7,33.09.65.43,1.33.83,2.03,1.16.33.15.75.09,1.34.15.17-.7.51-1.43.51-2.17.03-18.74.02-37.49.02-55.9-1.55-2.29-3.82-2.61-5.74-3.42-9.05-3.86-17.43-8.76-24.67-15.47-10.23-9.47-16.02-21.26-16.54-35.1-.5-13.37,2.34-26.04,11.53-36.53,8.86-10.12,19.93-16.07,33.32-17.62.37-.04.73-.24,1.32-.45.47-.83,1.03-1.83,1.72-3.04h21.19c.36,1.75.7,3.38,1.1,5.31,7.53,2.38,14.37,6.38,21.38,10.52.31-.98.61-1.49.61-2-.03-5.08-.14-10.16-.16-15.23-.02-3.82-2.07-6.19-5.39-7.6-1.43-.6-2.96-1.09-4.49-1.3-27.51-3.89-53.83-.64-77.76,14.3-31.13,19.43-49.63,47.56-54.8,83.9-2.27,15.99-.41,31.95,4.72,47.41,3.03,9.14,7.14,17.72,12.54,25.69,4.2,6.2,9.33,11.53,15.09,16.26,3.92,3.23,8.17,5.93,13.45,6.75.21,4.14-1.47,7.03-4.55,9.11-3.53,2.37-7.34,3.6-11.61,2.02-2.97-1.1-5.74-2.61-7.94-4.85-3.55-3.61-7.2-7.2-10.28-11.19-15.16-19.63-24.03-41.9-26.59-66.54-.74-7.15-.49-14.45-.08-21.65.5-8.78,2.04-17.48,4.57-25.9,12.96-43.21,40.62-72.61,83.18-87.66,10.52-3.72,21.56-5.15,32.76-5.44,22.45-.59,43.77,4.07,64.08,13.49,4.06,1.88,7.9,4.24,11.82,6.4,2.59,1.42,4.16,3.43,3.86,6.59-.13,1.33-.02,2.69-.02,3.77-1.01,1.32-1.95.63-2.83.46-3.36-.62-6.61-.18-9.77,1.01-2.9,1.09-4.91,3.03-5.67,6.04,4.02,1.75,8.04,3.15,11.7,5.18,9.01,5,16.46,11.9,22.56,20.14,9.56,12.9,15.85,27.33,18.74,43.12,1.19,6.51,2.06,13.15,2.24,19.75.6,21.37-4.8,41.37-14.89,60.11-9.53,17.71-22.59,32.21-39.71,42.95-13.08,8.2-27.29,13.44-42.49,15.7-9.66,1.44-19.41,1.67-29.2.7-8.96-.88-17.74-2.42-26.38-4.98-8.64-2.56-16.99-5.68-24.4-10.88-1.37,1.2-.98,2.05.24,2.78,5.37,3.21,10.98,5.92,16.87,8.05,17.3,6.27,35.12,8.66,53.48,7.41,36.97-2.51,65.51-19.71,86.63-49.74,11.45-16.26,18.52-34.41,20.96-54.08,3.56-28.74-2.06-55.57-18.64-79.7-5.13-7.47-11.37-13.9-18.73-19.2-3.97-2.85-8.04-5.52-12.91-6.67-.92-.22-1.75-.81-3.22-1.51Zm-49.49,14.42c0,19.57,0,38.31.02,57.05,0,.75.25,1.5.41,2.39,1.87.73,3.7,1.36,5.46,2.15,5.86,2.64,11.8,5.14,17.51,8.07,5.95,3.05,11.13,7.23,15.44,12.38,17.83,21.33,16.77,49.77,3.14,69.73-7.6,11.13-18.13,18.1-31.8,19.75-3.27.4-6.53.87-9.77,1.3-.5,2.14-1.64,3.07-3.76,3.03-5.07-.09-10.15,0-15.23-.03-1.12,0-2.24-.19-3.58-.31-.37-2.33-.69-4.39-.99-6.28-17.57-8.52-17.05-6.69-34.67-22.81-1.29,1.08-1.58,2.54-1.6,4.1-.13,7.23-.23,14.45-.38,21.68-.07,3.66,1.65,6.33,4.5,8.39,2.56,1.86,5.41,3.05,8.45,3.89,6.97,1.92,14.04,3.15,21.25,3.86,12.33,1.22,24.58.98,36.69-1.6,16.49-3.51,31.33-10.55,44.39-21.3,13.99-11.51,24.54-25.61,31.65-42.24,13.05-30.54,12.9-61.11-.59-91.45-5.04-11.33-11.85-21.53-21.59-29.53-6.24-5.12-13.08-9.18-20.41-12.47-1.6-.72-3.22-1.4-4.77-2.21-1.92-1.01-2.66-2.99-1.66-4.91.61-1.17,1.51-2.35,2.58-3.08,1.59-1.08,3.4-1.88,5.2-2.6,1.75-.7,3.6-1.14,5.44-1.7-.76-2.34-2.76-2.97-4.43-3.82-19.11-9.75-39.23-14.94-60.86-13.87-9.61.47-19.02,1.7-28.19,4.61-32.74,10.37-56.9,31.02-72.6,61.44-10.52,20.39-15.22,42.07-12.99,65.1,1.57,16.18,6.22,31.35,14.49,45.34,5.09,8.62,11.07,16.58,18.82,23.02,2.83,2.36,5.93,4.44,9.06,6.39,2.33,1.45,2.44,1.26,5.73.02-4.31-.68-7.46-2.95-10.56-5.32-4.68-3.57-8.85-7.68-12.52-12.27-15.89-19.83-23.06-42.75-23.39-67.88-.16-11.97,1.91-23.73,5.69-35.11,9.2-27.67,25.73-49.78,50.45-65.42,16.26-10.29,34.03-16.19,53.38-17.27,11.58-.65,23,.05,34.28,2.64,9.53,2.19,18.47,6.08,27.39,10.01.3.13.45.61.77,1.06-1.79.68-3.63,1.2-5.29,2.06-3.95,2.05-6.26,5.12-5.87,9.87.96,11.67,1.85,23.35,2.71,35.03.21,2.92.39,5.86.24,8.78-.19,3.63-2.88,6.1-6.92,6.78-2.68.46-4.6-.78-6.15-4.27-.86-1.95-1.41-4.05-2.13-6.06-3.09-8.64-7.99-16.04-15.1-21.9-1.93-1.59-3.97-3.02-7.3-4.16Zm.43,97.84c-.24,1.33-.43,1.9-.43,2.47-.02,16.21-.02,32.42.01,48.62,0,.89.37,1.77.6,2.8,6.19.02,11.37-1.97,15.95-5.54,3.02-2.35,5.07-5.46,5.82-9.23,1.01-5.06.87-10.09-1-14.99-1.82-4.78-4.19-9.26-7.37-13.25-3.54-4.45-7.81-8.06-13.58-10.89Zm-23.8-52.04c.27-1.09.6-1.79.6-2.48.05-14.26.07-28.52.05-42.78,0-.89-.43-1.79-.65-2.68-.89.07-1.51,0-2.04.19-8.62,3.07-16.25,11.32-12.84,24.27,1.81,6.87,4.96,13.14,9.51,18.64,1.45,1.76,2.93,3.57,5.38,4.85Z"/><g class="cls-3"><rect class="cls-9" x="-13.25" y="280.72" width="289.55" height="261.8" transform="translate(263.05 823.24) rotate(180)"/></g><g class="cls-5"><rect class="cls-7" x="116.09" y="129.94" width="289.55" height="261.8" transform="translate(521.73 521.67) rotate(180)"/></g><path class="cls-4" d="m220.15,36.96c3.65-3.45,7.32-4.17,11.33-3.55,3.72.58,7.05,2.21,10.15,4.31,5.88,3.98,10.81,8.95,15.19,14.5,11.59,14.68,18.84,31.4,22.87,49.54,3.95,17.79,3.83,35.66.02,53.47-4.39,20.54-12.61,39.35-25.73,55.87-17.21,21.66-38.98,36.3-66.08,42.64-7.61,1.78-15.3,2.95-23.14,3.12-9.77.21-19.54.2-29.21-1.39-16.64-2.73-32.66-7.48-47.51-15.69-.17-.09-.33-.22-.5-.3-5.14-2.18-6.83-6-5.29-11.59,1.34-.29,2.83-.56,4.29-.94,8.33-2.17,13.19-7.99,14.04-16.6.85-8.55,1.83-17.08,2.67-25.63.74-7.58,1.34-15.17,2.04-22.75.23-2.53.44-5.07.91-7.55.5-2.67,3.09-4.33,5.69-3.62,3.11.85,5.78,2.37,6.64,5.89.55,2.27,1.11,4.55,1.78,6.79,4.11,13.75,11.61,25.06,23.7,33.09.65.43,1.33.83,2.03,1.16.33.15.75.09,1.34.15.17-.7.51-1.43.51-2.17.03-18.74.02-37.49.02-55.9-1.55-2.29-3.82-2.61-5.74-3.42-9.05-3.86-17.43-8.76-24.67-15.47-10.23-9.47-16.02-21.26-16.54-35.1-.5-13.37,2.34-26.04,11.53-36.53,8.86-10.12,19.93-16.07,33.32-17.62.37-.04.73-.24,1.32-.45.47-.83,1.03-1.83,1.72-3.04h21.19c.36,1.75.7,3.38,1.1,5.31,7.53,2.38,14.37,6.38,21.38,10.52.31-.98.61-1.49.61-2-.03-5.08-.14-10.16-.16-15.23-.02-3.82-2.07-6.19-5.39-7.6-1.43-.6-2.96-1.09-4.49-1.3-27.51-3.89-53.83-.64-77.76,14.3-31.13,19.43-49.63,47.56-54.8,83.9-2.27,15.99-.41,31.95,4.72,47.41,3.03,9.14,7.14,17.72,12.54,25.69,4.2,6.2,9.33,11.53,15.09,16.26,3.92,3.23,8.17,5.93,13.45,6.75.21,4.14-1.47,7.03-4.55,9.11-3.53,2.37-7.34,3.6-11.61,2.02-2.97-1.1-5.74-2.61-7.94-4.85-3.55-3.61-7.2-7.2-10.28-11.19-15.16-19.63-24.03-41.9-26.59-66.54-.74-7.15-.49-14.45-.08-21.65.5-8.78,2.04-17.48,4.57-25.9C52.83,49.94,80.49,20.54,123.05,5.49,133.58,1.77,144.61.34,155.81.05c22.45-.59,43.77,4.07,64.08,13.49,4.06,1.88,7.9,4.24,11.82,6.4,2.59,1.42,4.16,3.43,3.86,6.59-.13,1.33-.02,2.69-.02,3.77-1.01,1.32-1.95.63-2.83.46-3.36-.62-6.61-.18-9.77,1.01-2.9,1.09-4.91,3.03-5.67,6.04,4.02,1.75,8.04,3.15,11.7,5.18,9.01,5,16.46,11.9,22.56,20.14,9.56,12.9,15.85,27.33,18.74,43.12,1.19,6.51,2.06,13.15,2.24,19.75.6,21.37-4.8,41.37-14.89,60.11-9.53,17.71-22.59,32.21-39.71,42.95-13.08,8.2-27.29,13.44-42.49,15.7-9.66,1.44-19.41,1.67-29.2.7-8.96-.88-17.74-2.42-26.38-4.98-8.64-2.56-16.99-5.68-24.4-10.88-1.37,1.2-.98,2.05.24,2.78,5.37,3.21,10.98,5.92,16.87,8.05,17.3,6.27,35.12,8.66,53.48,7.41,36.97-2.51,65.51-19.71,86.63-49.74,11.45-16.26,18.52-34.41,20.96-54.08,3.56-28.74-2.06-55.57-18.64-79.7-5.13-7.47-11.37-13.9-18.73-19.2-3.97-2.85-8.04-5.52-12.91-6.67-.92-.22-1.75-.81-3.22-1.51Zm-49.49,14.42c0,19.57,0,38.31.02,57.05,0,.75.25,1.5.41,2.39,1.87.73,3.7,1.36,5.46,2.15,5.86,2.64,11.8,5.14,17.51,8.07,5.95,3.05,11.13,7.23,15.44,12.38,17.83,21.33,16.77,49.77,3.14,69.73-7.6,11.13-18.13,18.1-31.8,19.75-3.27.4-6.53.87-9.77,1.3-.5,2.14-1.64,3.07-3.76,3.03-5.07-.09-10.15,0-15.23-.03-1.12,0-2.24-.19-3.58-.31-.37-2.33-.69-4.39-.99-6.28-17.57-8.52-17.05-6.69-34.67-22.81-1.29,1.08-1.58,2.54-1.6,4.1-.13,7.23-.23,14.45-.38,21.68-.07,3.66,1.65,6.33,4.5,8.39,2.56,1.86,5.41,3.05,8.45,3.89,6.97,1.92,14.04,3.15,21.25,3.86,12.33,1.22,24.58.98,36.69-1.6,16.49-3.51,31.33-10.55,44.39-21.3,13.99-11.51,24.54-25.61,31.65-42.24,13.05-30.54,12.9-61.11-.59-91.45-5.04-11.33-11.85-21.53-21.59-29.53-6.24-5.12-13.08-9.18-20.41-12.47-1.6-.72-3.22-1.4-4.77-2.21-1.92-1.01-2.66-2.99-1.66-4.91.61-1.17,1.51-2.35,2.58-3.08,1.59-1.08,3.4-1.88,5.2-2.6,1.75-.7,3.6-1.14,5.44-1.7-.76-2.34-2.76-2.97-4.43-3.82-19.11-9.75-39.23-14.94-60.86-13.87-9.61.47-19.02,1.7-28.19,4.61-32.74,10.37-56.9,31.02-72.6,61.44-10.52,20.39-15.22,42.07-12.99,65.1,1.57,16.18,6.22,31.35,14.49,45.34,5.09,8.62,11.07,16.58,18.82,23.02,2.83,2.36,5.93,4.44,9.06,6.39,2.33,1.45,2.44,1.26,5.73.02-4.31-.68-7.46-2.95-10.56-5.32-4.68-3.57-8.85-7.68-12.52-12.27-15.89-19.83-23.06-42.75-23.39-67.88-.16-11.97,1.91-23.73,5.69-35.11,9.2-27.67,25.73-49.78,50.45-65.42,16.26-10.29,34.03-16.19,53.38-17.27,11.58-.65,23,.05,34.28,2.64,9.53,2.19,18.47,6.08,27.39,10.01.3.13.45.61.77,1.06-1.79.68-3.63,1.2-5.29,2.06-3.95,2.05-6.26,5.12-5.87,9.87.96,11.67,1.85,23.35,2.71,35.03.21,2.92.39,5.86.24,8.78-.19,3.63-2.88,6.1-6.92,6.78-2.68.46-4.6-.78-6.15-4.27-.86-1.95-1.41-4.05-2.13-6.06-3.09-8.64-7.99-16.04-15.1-21.9-1.93-1.59-3.97-3.02-7.3-4.16Zm.43,97.84c-.24,1.33-.43,1.9-.43,2.47-.02,16.21-.02,32.42.01,48.62,0,.89.37,1.77.6,2.8,6.19.02,11.37-1.97,15.95-5.54,3.02-2.35,5.07-5.46,5.82-9.23,1.01-5.06.87-10.09-1-14.99-1.82-4.78-4.19-9.26-7.37-13.25-3.54-4.45-7.81-8.06-13.58-10.89Zm-23.8-52.04c.27-1.09.6-1.79.6-2.48.05-14.26.07-28.52.05-42.78,0-.89-.43-1.79-.65-2.68-.89.07-1.51,0-2.04.19-8.62,3.07-16.25,11.32-12.84,24.27,1.81,6.87,4.96,13.14,9.51,18.64,1.45,1.76,2.93,3.57,5.38,4.85Z"/><g class="cls-6"><rect class="cls-8" x="-35.71" y="351.2" width="289.55" height="261.8" transform="translate(218.13 964.2) rotate(180)"/></g></g></svg>